# xmcd
#
# Track frame offsets: 
#        150
#        16637
#        32608
#        61292
#        78273
#        98037
#        112020
#        129095
#        148350
#        160455
#        182975
#        199358
#        216103
#        238724
#        266000
#        280084
#        291533
#
# Disc length: 4422 seconds
#
# Revision: 0
# Processed by: cddbd v1.5.2PL0 Copyright (c) Steve Scherf et al.
# Submitted via: ExactAudioCopy v1.3
#
DISCID=fe114411
DTITLE=James Cotton - The Best of James Cotton - The Alligator Records
DTITLE=Years
DYEAR=2014
DGENRE=Blues
TTITLE0=Diggin' My Potatoes (Remastered)
TTITLE1=Little Car Blues (Remastered) [feat. Junior Wells]
TTITLE2=24 Hours (Remastered)
TTITLE3=Superharp (Remastered)
TTITLE4=Cross My Heart (Live) [Remastered]
TTITLE5=Blues For Koko (Remastered)
TTITLE6=Cotton Mouth Man (Remastered) [feat. Joe Bonamassa]
TTITLE7=Wasn't My Time To Go (Remastered) [feat. Keb' Mo']
TTITLE8=High Compression (Remastered)
TTITLE9=Sad Sad Day (Remastered) [feat. Tom Holland]
TTITLE10=Ain't Doing Too Bad (Remastered)
TTITLE11=He Was There (Remastered) [feat. Darrell Nulisch]
TTITLE12=Here I Am (Knocking At Your Door) [Live] (Remastered)
TTITLE13=Just To Be With You (Live) [Remastered]
TTITLE14=Born In Chicago (Live) [Remastered]
TTITLE15=With the Quickness (Remastered)
TTITLE16=Black Night (Remastered)
EXTD=
EXTT0=
EXTT1=
EXTT2=
EXTT3=
EXTT4=
EXTT5=
EXTT6=
EXTT7=
EXTT8=
EXTT9=
EXTT10=
EXTT11=
EXTT12=
EXTT13=
EXTT14=
EXTT15=
EXTT16=
PLAYORDER=
